<svg xmlns="http://www.w3.org/2000/svg" width="28" height="28"><defs><linearGradient id="a" x1="100%" x2="0%" y1="38.578%" y2="38.578%"><stop offset="0%" stop-color="#07d620"/><stop offset="100%" stop-color="#03ac0e"/></linearGradient></defs><path fill="url(#a)" fill-rule="evenodd" d="M19.2 11.8H8.8c-.715 0-1.3-.585-1.3-1.3s.585-1.3 1.3-1.3h10.4c.715 0 1.3.585 1.3 1.3s-.585 1.3-1.3 1.3M12.7 17H8.8c-.715 0-1.3-.585-1.3-1.3s.585-1.3 1.3-1.3h3.9c.715 0 1.3.585 1.3 1.3s-.585 1.3-1.3 1.3m5.2-13h-7.8A9.13 9.13 0 0 0 1 13.1c0 3.61 2.136 6.737 5.2 8.206v3.45c0 1.43.828 1.773 1.838.762l3.32-3.32H17.9a9.13 9.13 0 0 0 9.1-9.1A9.13 9.13 0 0 0 17.9 4"/></svg>